<svg width="24" height="24" viewBox="0 0 24 24" fill="none" xmlns="http://www.w3.org/2000/svg">
<g clip-path="url(#clip0_259_7261)">
<path d="M16.5057 3H7.49426C5.01215 3 3 5.01215 3 7.49426V16.5057C3 18.9879 5.01215 21 7.49426 21H16.5057C18.9879 21 21 18.9879 21 16.5057V7.49426C21 5.01215 18.9879 3 16.5057 3Z" fill="url(#paint0_linear_259_7261)"/>
<path d="M16.5057 3H7.49426C5.01215 3 3 5.01215 3 7.49426V16.5057C3 18.9879 5.01215 21 7.49426 21H16.5057C18.9879 21 21 18.9879 21 16.5057V7.49426C21 5.01215 18.9879 3 16.5057 3Z" fill="url(#paint1_radial_259_7261)"/>
<path fill-rule="evenodd" clip-rule="evenodd" d="M12.1476 18.8099C10.7975 18.8099 10.1701 18.6128 9.07949 17.8244C8.38964 18.7114 6.20514 19.4045 6.10987 18.2186C6.10987 17.3284 5.91277 16.5761 5.68939 15.7549C5.42331 14.7431 5.12109 13.6164 5.12109 11.9837C5.12109 8.08448 8.32067 5.151 12.1115 5.151C15.9057 5.151 18.8786 8.22902 18.8786 12.0199C18.8913 15.7521 15.8799 18.79 12.1476 18.8099ZM12.2035 8.52138C10.3573 8.42612 8.91852 9.70398 8.59988 11.7078C8.33708 13.3667 8.80355 15.387 9.20103 15.4921C9.39156 15.5381 9.87117 15.1505 10.1701 14.8515C10.6644 15.193 11.24 15.3981 11.8389 15.4461C13.7518 15.5381 15.3863 14.0818 15.5147 12.171C15.5895 10.2561 14.1167 8.63425 12.2035 8.52467V8.52138Z" fill="white"/>
</g>
<defs>
<linearGradient id="paint0_linear_259_7261" x1="5.12125" y1="16.6896" x2="21" y2="12" gradientUnits="userSpaceOnUse">
<stop stop-color="#44CCFF"/>
<stop offset="0.662" stop-color="#5533EE"/>
<stop offset="1" stop-color="#9933DD"/>
</linearGradient>
<radialGradient id="paint1_radial_259_7261" cx="0" cy="0" r="1" gradientUnits="userSpaceOnUse" gradientTransform="translate(2.57177 -4.90534) rotate(51.356) scale(21.8433 9)">
<stop stop-color="#0000FF"/>
<stop offset="1" stop-opacity="0"/>
</radialGradient>
<clipPath id="clip0_259_7261">
<rect width="18" height="18" fill="white" transform="translate(3 3)"/>
</clipPath>
</defs>
</svg>
