<svg width="24" height="24" viewBox="0 0 24 24" fill="none" xmlns="http://www.w3.org/2000/svg">
<g clip-path="url(#clip0_259_7246)">
<mask id="mask0_259_7246" style="mask-type:luminance" maskUnits="userSpaceOnUse" x="3" y="3" width="18" height="18">
<path d="M16.6364 3H7.36364C4.95367 3 3 4.95367 3 7.36364V16.6364C3 19.0463 4.95367 21 7.36364 21H16.6364C19.0463 21 21 19.0463 21 16.6364V7.36364C21 4.95367 19.0463 3 16.6364 3Z" fill="white"/>
</mask>
<g mask="url(#mask0_259_7246)">
<path d="M21 3H3V21H21V3Z" fill="#100943"/>
<path d="M21 12C25.9706 12 30 7.97056 30 3C30 -1.97056 25.9706 -6 21 -6C16.0294 -6 12 -1.97056 12 3C12 7.97056 16.0294 12 21 12Z" fill="#ED143B"/>
<path d="M14.118 11.5891H8.80019V9.48473H14.118C14.4286 9.48473 14.6446 9.53888 14.753 9.63342C14.8614 9.72798 14.9286 9.90334 14.9286 10.1595V10.9151C14.9286 11.185 14.8614 11.3604 14.753 11.4549C14.6446 11.5495 14.4286 11.5899 14.118 11.5899V11.5891ZM14.4829 7.5008H6.54492V16.5H8.80019V13.5722H12.9564L14.9286 16.5H17.454L15.2796 13.5585C16.0813 13.4397 16.4412 13.194 16.7381 12.7891C17.035 12.3843 17.1839 11.737 17.1839 10.8731V10.1983C17.1839 9.68595 17.1296 9.28109 17.035 8.97078C16.9403 8.66045 16.7786 8.39055 16.5488 8.14811C16.3062 7.91861 16.036 7.75698 15.7116 7.64869C15.3872 7.55415 14.982 7.5 14.4829 7.5V7.5008Z" fill="white"/>
</g>
</g>
<defs>
<clipPath id="clip0_259_7246">
<rect width="18" height="18" fill="white" transform="translate(3 3)"/>
</clipPath>
</defs>
</svg>
