<svg width="24" height="24" viewBox="0 0 24 24" fill="none" xmlns="http://www.w3.org/2000/svg">
<path d="M14.4192 3H14.3868H12.6714H9.5808C4.161 3 3 4.1628 3 9.5808V14.4192C3 19.839 4.1628 21 9.5808 21H12.6714H14.3868H14.4192C19.839 21 21 19.8372 21 14.4192V9.5808C21 4.161 19.8372 3 14.4192 3Z" fill="#495057"/>
<path fill-rule="evenodd" clip-rule="evenodd" d="M12.1504 18.96C10.7765 18.96 10.138 18.7586 9.02816 17.9528C8.32616 18.8593 6.10315 19.5677 6.00621 18.3557C6.00621 17.4459 5.80563 16.677 5.57832 15.8377C5.30754 14.8036 5 13.652 5 11.9834C5 7.99815 8.25596 5 12.1136 5C15.9747 5 19 8.14588 19 12.0203C19.0129 15.8348 15.9484 18.9397 12.1504 18.96ZM12.2072 8.44469C10.3285 8.34732 8.86436 9.65335 8.5401 11.7014C8.27267 13.3968 8.74736 15.4616 9.15185 15.5691C9.34574 15.6161 9.8338 15.2199 10.138 14.9144C10.641 15.2634 11.2268 15.473 11.8362 15.5221C13.7828 15.6161 15.4461 14.1277 15.5769 12.1748C15.6529 10.2177 14.1541 8.56004 12.2072 8.44805L12.2072 8.44469Z" fill="white"/>
</svg>
