<svg width="24" height="24" viewBox="0 0 24 24" fill="none" xmlns="http://www.w3.org/2000/svg">
<path d="M3.01056 11.6557C3.01056 7.57691 3.01056 5.54281 4.28111 4.2713C5.54105 3 7.58458 3 11.6506 3H12.3706C16.447 3 18.4799 3 19.7401 4.2713C21 5.53198 21 7.57671 21 11.6451V12.3655C21 16.4443 21 18.4784 19.7401 19.7393C18.4801 21 16.4366 21 12.3706 21H11.6506C7.57422 21 5.54132 21 4.27056 19.7393C3 18.4786 3 16.4339 3 12.3655L3.01056 11.6557Z" fill="#495057"/>
<path d="M14.0951 11.0809C13.5611 11.6179 12.8216 11.9483 12 11.9483C11.1784 11.9483 10.4389 11.6179 9.90483 11.0809C9.37077 10.5438 9.04208 9.8003 9.04208 8.97417C9.04208 8.14805 9.37073 7.40449 9.90483 6.8675C10.4389 6.33049 11.1784 6 12 6C12.8216 6 13.5611 6.33046 14.0951 6.8675C14.6292 7.40453 14.9579 8.14805 14.9579 8.97417C14.9579 9.8003 14.6292 10.5439 14.0951 11.0809ZM12 7.63165C11.6302 7.63165 11.2913 7.78655 11.0551 8.02407C10.8086 8.27192 10.6648 8.60238 10.6648 8.97413C10.6648 9.34588 10.8189 9.68667 11.0551 9.92419C11.3016 10.172 11.6303 10.3166 12 10.3166C12.3697 10.3166 12.7086 10.1617 12.9448 9.92419C13.1913 9.67634 13.3351 9.34588 13.3351 8.97413C13.3351 8.60238 13.1811 8.26159 12.9448 8.02407C12.7086 7.77622 12.3697 7.63165 12 7.63165ZM15.1119 11.969L15.9746 13.1566C16.0157 13.2186 16.0055 13.3012 15.9541 13.3425C15.2249 13.9415 14.3725 14.3443 13.4892 14.5508L15.1633 17.7935C15.2146 17.8864 15.1428 18 15.04 18H13.253C13.2016 18 13.1503 17.969 13.1297 17.9174L12 15.2427L10.8703 17.9174C10.8497 17.969 10.7984 18 10.747 18H8.94971C8.84701 18 8.77511 17.8864 8.82646 17.7935L10.5108 14.5508C9.62752 14.3442 8.77508 13.9415 8.04589 13.3425C7.99454 13.3012 7.98427 13.2186 8.02535 13.1566L8.89834 11.969C8.94969 11.907 9.04212 11.8967 9.10375 11.9484C9.92541 12.6506 10.9319 13.105 12.0103 13.105C13.0887 13.105 14.0952 12.6506 14.9169 11.9484C14.9682 11.8864 15.0607 11.8967 15.112 11.969H15.1119Z" fill="white"/>
</svg>
