<svg width="24" height="24" viewBox="0 0 24 24" fill="none" xmlns="http://www.w3.org/2000/svg">
<path d="M11.958 3.00002C9.57834 3.01113 7.29993 3.96424 5.62117 5.65086C3.94242 7.33749 2.99997 9.62033 3 12C3 14.387 3.94821 16.6761 5.63604 18.364C7.32387 20.0518 9.61305 21 12 21C14.3869 21 16.6761 20.0518 18.364 18.364C20.0518 16.6761 21 14.387 21 12C21 9.61307 20.0518 7.32388 18.364 5.63606C16.6761 3.94823 14.3869 3.00002 12 3.00002C11.986 2.99999 11.972 2.99999 11.958 3.00002ZM15.6795 8.41802C15.7545 8.41652 15.9202 8.43527 16.0282 8.52302C16.1 8.58534 16.1458 8.67232 16.1565 8.76677C16.1685 8.83652 16.1835 8.99627 16.1715 9.12077C16.0365 10.5443 15.45 13.9973 15.1515 15.591C15.0255 16.266 14.7773 16.4918 14.5365 16.5135C14.0145 16.5623 13.6178 16.1685 13.1115 15.837C12.3195 15.3173 11.8717 14.994 11.103 14.487C10.2143 13.902 10.7903 13.5795 11.2965 13.0545C11.4292 12.9165 13.7318 10.8218 13.7768 10.632C13.782 10.608 13.7872 10.5195 13.7347 10.473C13.6823 10.4265 13.6042 10.4423 13.548 10.455C13.4685 10.473 12.2032 11.31 9.75225 12.9638C9.39225 13.2113 9.0675 13.3313 8.77575 13.3238C8.45475 13.3178 7.83675 13.143 7.377 12.9938C6.813 12.81 6.36525 12.7133 6.40425 12.402C6.4245 12.24 6.648 12.0743 7.074 11.9048C9.6975 10.7618 11.4465 10.008 12.3225 9.64427C14.8215 8.60477 15.3413 8.42402 15.6795 8.41802Z" fill="#35ABEC"/>
</svg>
