<svg width="32" height="32" viewBox="0 0 32 32" fill="none" xmlns="http://www.w3.org/2000/svg">
<path fill-rule="evenodd" clip-rule="evenodd" d="M16 13.5C15.7348 13.5 15.4804 13.6054 15.2929 13.7929C15.1054 13.9804 15 14.2348 15 14.5C15 15.0523 14.5523 15.5 14 15.5C13.4477 15.5 13 15.0523 13 14.5C13 13.7043 13.3161 12.9413 13.8787 12.3787C14.4413 11.8161 15.2043 11.5 16 11.5C16.7957 11.5 17.5587 11.8161 18.1213 12.3787C18.6839 12.9413 19 13.7043 19 14.5C19 15.0523 18.5523 15.5 18 15.5C17.4477 15.5 17 15.0523 17 14.5C17 14.2348 16.8946 13.9804 16.7071 13.7929C16.5196 13.6054 16.2652 13.5 16 13.5Z" fill="#0A51A1"/>
<path fill-rule="evenodd" clip-rule="evenodd" d="M27 12.5C27 11.9477 27.4477 11.5 28 11.5H29C29.5523 11.5 30 11.9477 30 12.5C30 13.0523 29.5523 13.5 29 13.5H28C27.4477 13.5 27 13.0523 27 12.5Z" fill="#0A51A1"/>
<path fill-rule="evenodd" clip-rule="evenodd" d="M2 12.5C2 11.9477 2.44772 11.5 3 11.5H4C4.55228 11.5 5 11.9477 5 12.5C5 13.0523 4.55228 13.5 4 13.5H3C2.44772 13.5 2 13.0523 2 12.5Z" fill="#0A51A1"/>
<path fill-rule="evenodd" clip-rule="evenodd" d="M4.68377 11.0513C5.55863 10.7597 6.91965 10.5 9 10.5C11.0803 10.5 12.4414 10.7597 13.3162 11.0513C13.7547 11.1975 14.0719 11.352 14.2957 11.4863C14.4076 11.5534 14.4955 11.6151 14.5632 11.6677C14.5969 11.694 14.6255 11.7179 14.6494 11.7389C14.6613 11.7495 14.6721 11.7593 14.6817 11.7683C14.6865 11.7728 14.691 11.7771 14.6952 11.7812C14.6974 11.7833 14.6994 11.7853 14.7014 11.7872L14.7043 11.7901L14.7057 11.7915C14.7064 11.7922 14.7071 11.7929 14 12.5L14.7071 11.7929C14.8946 11.9804 15 12.2348 15 12.5C15 15.48 14.7674 17.748 13.8575 19.2645C12.8485 20.9462 11.1662 21.5 9 21.5C6.83384 21.5 5.15154 20.9462 4.14251 19.2645C3.23259 17.748 3 15.48 3 12.5C3 12.2348 3.10536 11.9804 3.29289 11.7929L4 12.5C3.29289 11.7929 3.29359 11.7922 3.29429 11.7915L3.29571 11.7901L3.29862 11.7872C3.3006 11.7853 3.30265 11.7833 3.30477 11.7812C3.309 11.7771 3.31352 11.7728 3.31832 11.7683C3.32792 11.7593 3.33865 11.7495 3.35059 11.7389C3.37446 11.7179 3.40306 11.694 3.43684 11.6677C3.50446 11.6151 3.59243 11.5534 3.70425 11.4863C3.92809 11.352 4.24534 11.1975 4.68377 11.0513ZM5.00333 13.0665C5.03571 15.7396 5.30534 17.3152 5.85749 18.2355C6.34846 19.0538 7.16616 19.5 9 19.5C10.8338 19.5 11.6515 19.0538 12.1425 18.2355C12.6947 17.3152 12.9643 15.7396 12.9967 13.0665C12.9113 13.03 12.8077 12.99 12.6838 12.9487C12.0586 12.7403 10.9197 12.5 9 12.5C7.08035 12.5 5.94137 12.7403 5.31623 12.9487C5.19227 12.99 5.0887 13.03 5.00333 13.0665Z" fill="#0A51A1"/>
<path fill-rule="evenodd" clip-rule="evenodd" d="M19.0033 13.0665C19.0357 15.7396 19.3053 17.3152 19.8575 18.2355C20.3485 19.0538 21.1662 19.5 23 19.5C24.8338 19.5 25.6515 19.0538 26.1425 18.2355C26.6947 17.3152 26.9643 15.7396 26.9967 13.0665C26.9113 13.03 26.8077 12.99 26.6838 12.9487C26.0586 12.7403 24.9197 12.5 23 12.5C21.0803 12.5 19.9414 12.7403 19.3162 12.9487C19.1923 12.99 19.0887 13.03 19.0033 13.0665ZM28 12.5L28.7071 11.7929C28.8946 11.9804 29 12.2348 29 12.5C29 15.48 28.7674 17.748 27.8575 19.2645C26.8485 20.9462 25.1662 21.5 23 21.5C20.8338 21.5 19.1515 20.9462 18.1425 19.2645C17.2326 17.748 17 15.48 17 12.5C17 12.2348 17.1054 11.9804 17.2929 11.7929L18 12.5C17.2929 11.7929 17.2936 11.7922 17.2943 11.7915L17.2957 11.7901L17.2986 11.7872C17.3006 11.7853 17.3026 11.7833 17.3048 11.7812C17.309 11.7771 17.3135 11.7728 17.3183 11.7683C17.3279 11.7593 17.3387 11.7495 17.3506 11.7389C17.3745 11.7179 17.4031 11.694 17.4368 11.6677C17.5045 11.6151 17.5924 11.5534 17.7043 11.4863C17.9281 11.352 18.2453 11.1975 18.6838 11.0513C19.5586 10.7597 20.9197 10.5 23 10.5C25.0803 10.5 26.4414 10.7597 27.3162 11.0513C27.7547 11.1975 28.0719 11.352 28.2957 11.4863C28.4076 11.5534 28.4955 11.6151 28.5632 11.6677C28.5969 11.694 28.6255 11.7179 28.6494 11.7389C28.6613 11.7495 28.6721 11.7593 28.6817 11.7683C28.6865 11.7728 28.691 11.7771 28.6952 11.7812C28.6974 11.7833 28.6994 11.7853 28.7014 11.7872L28.7043 11.7901L28.7057 11.7915C28.7064 11.7922 28.7071 11.7929 28 12.5Z" fill="#0A51A1"/>
</svg>
