<svg width="16" height="16" viewBox="0 0 16 16" fill="none" xmlns="http://www.w3.org/2000/svg">
<path fill-rule="evenodd" clip-rule="evenodd" d="M3.85355 6.64645C4.04882 6.84171 4.04882 7.15829 3.85355 7.35355L2.20711 9L3.85355 10.6464C4.04882 10.8417 4.04882 11.1583 3.85355 11.3536C3.65829 11.5488 3.34171 11.5488 3.14645 11.3536L1.14645 9.35355C0.951184 9.15829 0.951184 8.84171 1.14645 8.64645L3.14645 6.64645C3.34171 6.45118 3.65829 6.45118 3.85355 6.64645Z" fill="#495057"/>
<path fill-rule="evenodd" clip-rule="evenodd" d="M14.5 4.5C14.7761 4.5 15 4.72386 15 5V5.625C15 7.72208 13.3122 9.5 11.1875 9.5H2C1.72386 9.5 1.5 9.27614 1.5 9C1.5 8.72386 1.72386 8.5 2 8.5H11.1875C12.7353 8.5 14 7.19479 14 5.625V5C14 4.72386 14.2239 4.5 14.5 4.5Z" fill="#495057"/>
</svg>
