<svg width="32" height="32" viewBox="0 0 32 32" fill="none" xmlns="http://www.w3.org/2000/svg">
<path fill-rule="evenodd" clip-rule="evenodd" d="M8.55288 2.44479C8.76253 2.60945 8.99799 2.83097 9.26889 3.09854C9.84927 3.66976 10.5226 4.58494 11.1004 5.46351C11.6846 6.35193 12.226 7.28718 12.5294 7.93813L12.5296 7.93855L12.5298 7.93896C12.7018 8.30882 12.8568 8.64399 12.9658 8.93774C13.0764 9.23605 13.1684 9.56417 13.169 9.92225C13.1702 10.6718 12.7634 11.2503 12.3715 11.7838C12.2589 11.9371 12.1633 12.0627 12.0808 12.171C11.9031 12.4043 11.7866 12.5573 11.6934 12.7342C11.6024 12.9068 11.5758 13.0314 11.6189 13.232C11.681 13.5212 11.9509 14.1543 12.4751 14.9826C12.982 15.7836 13.676 16.687 14.5053 17.5136C15.3343 18.3401 16.2234 19.0158 17.0085 19.5048C17.8174 20.0086 18.4403 20.2673 18.7379 20.3307C18.945 20.3749 19.0743 20.3473 19.2472 20.2573C19.4296 20.1623 19.5919 20.0384 19.8443 19.8457C19.9434 19.77 20.0565 19.6837 20.1902 19.5843L20.1904 19.5842L20.2005 19.5767C20.7359 19.1789 21.3307 18.7369 22.0847 18.7377C22.4572 18.7381 22.7916 18.8433 23.086 18.9635C23.3673 19.0783 23.6904 19.2411 24.0449 19.4197L24.0746 19.4346C24.6958 19.7479 25.6196 20.2786 26.5139 20.8572C27.3924 21.4255 28.3194 22.089 28.8966 22.6706L28.8974 22.6714C29.1657 22.9424 29.3878 23.1779 29.5529 23.3874C29.7126 23.5903 29.888 23.8527 29.962 24.1792C30.0453 24.5469 29.9698 24.8528 29.8923 25.065C29.8574 25.1606 29.8163 25.2524 29.7867 25.3182C29.7821 25.3284 29.7776 25.3384 29.7732 25.3482C29.7457 25.4091 29.7218 25.4623 29.6963 25.5231L29.6957 25.5246L29.6951 25.5261C29.4339 26.1455 29.1161 26.7396 28.7458 27.3007L28.7447 27.3024L28.7436 27.3041C28.0201 28.391 27.3395 29.1012 26.2815 29.594C25.7318 29.8501 24.9462 30.1087 23.7255 29.9565C22.5513 29.81 21.0237 29.2902 18.9388 28.1225L18.9383 28.1222C15.6019 26.251 13.2869 24.6379 10.3007 21.66C7.32316 18.6908 5.85965 16.7529 3.8095 13.0285C1.74557 9.27905 1.74853 6.96688 2.33794 5.70739C2.83282 4.64989 3.55011 3.97241 4.63341 3.25269L4.63555 3.25127L4.63769 3.24987C5.19944 2.88079 5.79381 2.56393 6.41335 2.30326L6.41539 2.3024L6.41744 2.30155C6.47875 2.27607 6.53238 2.25203 6.59369 2.22455C6.60331 2.22024 6.61311 2.21584 6.62316 2.21134C6.68904 2.18186 6.78092 2.14087 6.87652 2.10615C7.08841 2.02918 7.39372 1.954 7.76074 2.03675C8.08705 2.11033 8.34958 2.28512 8.55288 2.44479ZM7.1871 4.14752C6.68157 4.36036 6.19653 4.61892 5.73802 4.91998C4.82286 5.52825 4.43054 5.95432 4.14939 6.5551C3.96255 6.95436 3.61676 8.53095 5.56158 12.064C7.52018 15.6221 8.86916 17.408 11.7129 20.2438C14.5477 23.0707 16.7089 24.5788 19.9161 26.3775C21.8787 27.4767 23.1511 27.8693 23.973 27.9718C24.7483 28.0685 25.1549 27.9124 25.437 27.781C26.0425 27.499 26.4705 27.1094 27.0777 26.1974C27.3796 25.7397 27.6387 25.2552 27.8518 24.7501C27.8805 24.6814 27.9087 24.6178 27.9325 24.5648C27.8393 24.4541 27.6964 24.301 27.4767 24.0791C27.0613 23.6607 26.2903 23.0946 25.4275 22.5364C24.5804 21.9884 23.7194 21.4955 23.1744 21.2206C22.781 21.0224 22.529 20.8963 22.3301 20.8152C22.1367 20.7362 22.0804 20.7377 22.0826 20.7377C22.1007 20.7377 22.0389 20.7024 21.3832 21.1896C21.3162 21.2394 21.2437 21.2949 21.1671 21.3537C20.8749 21.5776 20.5212 21.8489 20.1706 22.0313C19.6468 22.304 19.0455 22.4413 18.3207 22.2868C17.6864 22.1515 16.8309 21.7504 15.9511 21.2024C15.0473 20.6395 14.0374 19.8712 13.0933 18.9301C12.1494 17.9892 11.3641 16.967 10.7851 16.0521C10.2233 15.1644 9.80072 14.2913 9.66344 13.6518C9.50712 12.9236 9.64964 12.3223 9.92413 11.8016C10.101 11.466 10.3654 11.1193 10.5831 10.834C10.6471 10.75 10.7071 10.6714 10.7596 10.5999C11.18 10.0275 11.1701 9.93625 11.169 9.9263C11.169 9.92597 11.169 9.92573 11.169 9.92556C11.1689 9.90629 11.1645 9.83246 11.0906 9.63331C11.0151 9.42964 10.8975 9.17189 10.7164 8.78249C10.4691 8.25216 9.98439 7.40649 9.42931 6.56242C8.86781 5.70858 8.28867 4.93981 7.86548 4.52347L7.86476 4.52277L7.86404 4.52206C7.64074 4.30149 7.48716 4.15854 7.37629 4.06549C7.32241 4.08957 7.25749 4.11824 7.1871 4.14752Z" fill="#0A51A1"/>
</svg>
