<svg width="32" height="32" viewBox="0 0 32 32" fill="none" xmlns="http://www.w3.org/2000/svg">
<path fill-rule="evenodd" clip-rule="evenodd" d="M16 3C14.3431 3 13 4.34315 13 6C13 7.65685 14.3431 9 16 9C17.6569 9 19 7.65685 19 6C19 4.34315 17.6569 3 16 3ZM11 6C11 3.23858 13.2386 1 16 1C18.7614 1 21 3.23858 21 6C21 8.76142 18.7614 11 16 11C13.2386 11 11 8.76142 11 6Z" fill="#0A51A1"/>
<path d="M17 10.25C17 10.1008 16.9407 9.95774 16.8352 9.85225C16.7298 9.74676 16.5867 9.6875 16.4375 9.6875H15.5625C15.4133 9.6875 15.2702 9.74676 15.1648 9.85225C15.0593 9.95774 15 10.1008 15 10.25V28.5975C15.0001 28.8632 15.053 29.1262 15.1556 29.3713L15.785 30.8713C15.8061 30.9098 15.8372 30.9421 15.875 30.9645C15.9128 30.9869 15.956 30.9988 16 30.9988C16.044 30.9988 16.0872 30.9869 16.125 30.9645C16.1628 30.9421 16.1939 30.9098 16.215 30.8713L16.8444 29.3713C16.947 29.1262 16.9999 28.8632 17 28.5975V10.25Z" fill="#0A51A1"/>
<path d="M17.5 6C18.3284 6 19 5.32843 19 4.5C19 3.67157 18.3284 3 17.5 3C16.6716 3 16 3.67157 16 4.5C16 5.32843 16.6716 6 17.5 6Z" fill="#0A51A1"/>
</svg>
