<svg width="32" height="32" viewBox="0 0 32 32" fill="none" xmlns="http://www.w3.org/2000/svg">
<path fill-rule="evenodd" clip-rule="evenodd" d="M14.8782 4.4388C15.2271 4.26668 15.611 4.17715 16 4.17715C16.389 4.17715 16.7729 4.26668 17.1218 4.4388L28.039 9.82712C28.0397 9.82745 28.0403 9.82778 28.041 9.82811C28.6269 10.1148 29.121 10.5596 29.4676 11.1122C29.8146 11.6655 29.9999 12.3048 30.0025 12.9579L30.0025 12.9619V24.5C30.0025 26.445 28.4089 28 26.47 28H5.5325C3.59364 28 2 26.445 2 24.5V12.9619L2.00001 12.9584C2.00229 12.3057 2.18704 11.6666 2.53339 11.1134C2.87946 10.5606 3.37308 10.1155 3.95858 9.82831C3.95906 9.82808 3.95953 9.82784 3.96001 9.82761L14.8782 4.4388ZM27.6 10.7256L27.1574 11.6223L16.237 6.23242C16.2369 6.23239 16.2368 6.23237 16.2368 6.23234C16.1631 6.19603 16.0821 6.17715 16 6.17715C15.9179 6.17715 15.8368 6.19605 15.7631 6.23237C15.7631 6.23239 15.7631 6.23241 15.763 6.23242L4.84259 11.6223L4.83999 11.6236C4.5888 11.7467 4.37702 11.9376 4.22859 12.1747C4.08042 12.4113 4.00126 12.6846 4 12.9638V24.5C4 25.3162 4.67386 26 5.5325 26H26.47C27.3286 26 28.0025 25.3162 28.0025 24.5V12.9642C28.0011 12.6849 27.9217 12.4115 27.7733 12.1749C27.6246 11.9377 27.4125 11.747 27.161 11.6241L27.6 10.7256Z" fill="#0A51A1"/>
<path fill-rule="evenodd" clip-rule="evenodd" d="M14.2995 15.9269C14.7383 15.5856 15.2784 15.4003 15.8343 15.4003C16.3903 15.4003 16.9304 15.5856 17.3692 15.9269L25.448 22.2107C25.8839 22.5498 25.9624 23.178 25.6234 23.614C25.2843 24.0499 24.656 24.1284 24.2201 23.7894L16.1413 17.5056L16.7553 16.7163L16.1413 17.5056C16.0536 17.4373 15.9455 17.4003 15.8343 17.4003C15.7232 17.4003 15.6151 17.4373 15.5274 17.5056L15.5273 17.5056L7.44796 23.7894C7.01201 24.1284 6.38373 24.0499 6.04467 23.6139C5.70561 23.178 5.78415 22.5497 6.2201 22.2106L14.2994 15.9269C14.2995 15.9269 14.2995 15.9269 14.2995 15.9269Z" fill="#0A51A1"/>
<path fill-rule="evenodd" clip-rule="evenodd" d="M28.6312 11.3962C28.9647 11.8365 28.8781 12.4637 28.4378 12.7972L19.9378 19.2347C19.4975 19.5681 18.8703 19.4815 18.5369 19.0412C18.2034 18.601 18.29 17.9738 18.7303 17.6403L27.2303 11.2028C27.6706 10.8694 28.2978 10.956 28.6312 11.3962Z" fill="#0A51A1"/>
<path fill-rule="evenodd" clip-rule="evenodd" d="M3.03611 11.3972C3.369 10.9566 3.99611 10.8692 4.43679 11.2021L13.1243 17.7646C13.565 18.0975 13.6524 18.7246 13.3195 19.1652C12.9866 19.6059 12.3595 19.6933 11.9188 19.3604L3.23129 12.7979C2.7906 12.465 2.70322 11.8379 3.03611 11.3972Z" fill="#0A51A1"/>
</svg>
