<svg width="16" height="16" viewBox="0 0 16 16" fill="none" xmlns="http://www.w3.org/2000/svg">
<path fill-rule="evenodd" clip-rule="evenodd" d="M1.43953 1.5L14.5633 1.5C14.7426 1.50028 14.918 1.55194 15.0687 1.64885C15.2195 1.74576 15.3394 1.88386 15.4141 2.04678C15.4888 2.20971 15.5152 2.39064 15.4902 2.56813C15.4652 2.74558 15.3899 2.91217 15.2732 3.04814C15.2732 3.04817 15.2732 3.04819 15.2732 3.04822L10.0045 9.18689C10.0032 9.1884 10.0019 9.18989 10.0006 9.19138C10.0003 9.19169 10.0001 9.19207 10 9.19248V13.7489C10.0005 13.8672 9.97283 13.984 9.91938 14.0895C9.86562 14.1957 9.7873 14.2875 9.69092 14.3574C9.59454 14.4272 9.48289 14.473 9.36524 14.4911C9.24777 14.5091 9.1277 14.4988 9.01499 14.4612C9.01482 14.4611 9.01465 14.4611 9.01447 14.461L6.51062 13.6279L6.50836 13.6271C6.359 13.5766 6.22942 13.4802 6.13814 13.3517C6.04745 13.224 5.99916 13.071 6.00005 12.9144V9.19079C6 9.19035 5.99982 9.18993 5.99952 9.18959C5.99876 9.18871 5.998 9.18783 5.99724 9.18695L0.726944 3.04822C0.726939 3.04821 0.726949 3.04822 0.726944 3.04822C0.610006 2.91201 0.534617 2.74509 0.509762 2.5673C0.484907 2.38951 0.511621 2.20832 0.58673 2.04526C0.661839 1.88221 0.782185 1.74415 0.933464 1.64749C1.08458 1.55094 1.26021 1.49975 1.43953 1.5ZM1.57427 2.5L6.75502 8.53444C6.91146 8.71484 6.99836 8.94518 7.00004 9.18399C7.00004 9.18516 7.00005 9.18633 7.00005 9.1875V12.7368L9.00005 13.4023V9.1875C9.00005 9.18674 9.00005 9.18597 9.00005 9.18521C9.00006 9.18421 9.00007 9.1832 9.00008 9.1822C9.00261 8.94348 9.09027 8.71354 9.24723 8.53375L14.4259 2.5H1.57427Z" fill="#0A51A1"/>
</svg>
