<?xml version="1.0" encoding="utf-8"?><svg viewBox="0 0 24 24" xmlns="http://www.w3.org/2000/svg" xmlns:xlink="http://www.w3.org/1999/xlink"><style>:root>svg{display:none}:root>svg:target{display:block}</style><svg viewBox="0 0 16 16" id="btn-arrow" xmlns="http://www.w3.org/2000/svg"><path fill-rule="evenodd" clip-rule="evenodd" d="M2.97 5.22a.75.75 0 011.06 0L8 9.19l3.97-3.97a.75.75 0 111.06 1.06l-4.5 4.5a.75.75 0 01-1.06 0l-4.5-4.5a.75.75 0 010-1.06z"/></svg><svg viewBox="0 0 24 24" id="globe" xmlns="http://www.w3.org/2000/svg"><path d="M12 20a8 8 0 100-16 8 8 0 000 16z"/><path d="M12 4c-1.926 2.157-3 5.021-3 8s1.074 5.843 3 8c1.926-2.157 3-5.021 3-8s-1.074-5.843-3-8zM4 12h16"/></svg><svg viewBox="0 0 24 24" id="ok" xmlns="http://www.w3.org/2000/svg"><path d="M3.01 11.656c0-4.08 0-6.113 1.271-7.385C5.541 3 7.585 3 11.651 3h.72c4.076 0 6.109 0 7.37 1.271C21 5.532 21 7.577 21 11.645v.72c0 4.08 0 6.113-1.26 7.374C18.48 21 16.437 21 12.37 21h-.72c-4.076 0-6.109 0-7.38-1.26C3 18.478 3 16.433 3 12.365l.01-.71z"/><path d="M14.095 11.08a2.94 2.94 0 01-2.095.868 2.94 2.94 0 01-2.095-.867 2.973 2.973 0 01-.863-2.107c0-.826.329-1.57.863-2.107A2.94 2.94 0 0112 6c.822 0 1.561.33 2.095.867.534.538.863 1.281.863 2.107 0 .826-.329 1.57-.863 2.107zM12 7.633a1.34 1.34 0 00-1.335 1.342c0 .372.154.713.39.95.247.248.575.393.945.393a1.34 1.34 0 001.335-1.343c0-.372-.154-.712-.39-.95A1.298 1.298 0 0012 7.632zm3.112 4.337l.863 1.188c.04.062.03.144-.02.185a6.055 6.055 0 01-2.466 1.209l1.674 3.243c.052.092-.02.206-.123.206h-1.787a.134.134 0 01-.123-.083L12 15.243l-1.13 2.674a.134.134 0 01-.123.083H8.95c-.103 0-.175-.114-.124-.206l1.685-3.243a6.057 6.057 0 01-2.465-1.209c-.051-.04-.062-.123-.02-.185l.872-1.188a.146.146 0 01.206-.02c.821.702 1.828 1.156 2.906 1.156 1.079 0 2.085-.454 2.907-1.157.051-.062.144-.051.195.021z"/></svg><svg viewBox="0 0 7 11" id="pag-left" xmlns="http://www.w3.org/2000/svg"><path d="M5.338 10l-4-4.504 4-4.496"/></svg><svg viewBox="0 0 7 11" id="pag-right" xmlns="http://www.w3.org/2000/svg"><path d="M1 10l4-4.504L1 1"/></svg><svg viewBox="0 0 24 24" id="tg-color" xmlns="http://www.w3.org/2000/svg"><path d="M11.958 3a9 9 0 10.084 18 9 9 0 00-.084-18zm3.722 5.418a.589.589 0 01.348.105.38.38 0 01.129.244c.012.07.026.23.015.354-.136 1.423-.722 4.876-1.02 6.47-.127.675-.375.9-.615.923-.523.048-.92-.345-1.426-.677-.792-.52-1.24-.843-2.008-1.35-.889-.585-.313-.908.194-1.432.132-.139 2.435-2.233 2.48-2.423.005-.024.01-.112-.042-.159-.053-.046-.13-.03-.187-.018-.08.018-1.345.855-3.796 2.509-.36.247-.684.367-.976.36-.321-.006-.94-.181-1.399-.33-.564-.184-1.012-.28-.973-.592.02-.162.244-.328.67-.497a417.152 417.152 0 015.248-2.26c2.5-1.04 3.02-1.221 3.358-1.227z"/></svg><svg viewBox="0 0 24 24" id="vk" xmlns="http://www.w3.org/2000/svg"><path d="M4.26 4.26C3 5.532 3 7.566 3 11.64v.72c0 4.068 0 6.102 1.26 7.38C5.532 21 7.566 21 11.64 21h.72c4.068 0 6.102 0 7.38-1.26C21 18.468 21 16.434 21 12.36v-.72c0-4.068 0-6.102-1.26-7.38C18.468 3 16.434 3 12.36 3h-.72C7.572 3 5.538 3 4.26 4.26zm1.776 4.218H8.1c.066 3.432 1.578 4.884 2.778 5.184V8.478h1.938v2.958c1.182-.126 2.43-1.476 2.85-2.964h1.932a5.72 5.72 0 01-2.628 3.738 5.92 5.92 0 013.078 3.756h-2.13c-.456-1.422-1.596-2.526-3.102-2.676v2.676h-.24c-4.104 0-6.444-2.808-6.54-7.488z"/></svg></svg>