<svg width="32" height="32" viewBox="0 0 32 32" fill="none" xmlns="http://www.w3.org/2000/svg">
<path d="M26.6673 13.3333C26.6673 19.9907 19.282 26.924 16.802 29.0653C16.571 29.2391 16.2897 29.333 16.0007 29.333C15.7116 29.333 15.4304 29.2391 15.1993 29.0653C12.7193 26.924 5.33398 19.9907 5.33398 13.3333C5.33398 10.5043 6.45779 7.79124 8.45818 5.79085C10.4586 3.79046 13.1717 2.66666 16.0007 2.66666C18.8296 2.66666 21.5427 3.79046 23.5431 5.79085C25.5435 7.79124 26.6673 10.5043 26.6673 13.3333Z" stroke="#0A51A1" stroke-width="2" stroke-linecap="round" stroke-linejoin="round"/>
<path d="M16 17.3333C18.2091 17.3333 20 15.5425 20 13.3333C20 11.1242 18.2091 9.33334 16 9.33334C13.7909 9.33334 12 11.1242 12 13.3333C12 15.5425 13.7909 17.3333 16 17.3333Z" stroke="#0A51A1" stroke-width="2" stroke-linecap="round" stroke-linejoin="round"/>
</svg>
