<svg width="16" height="16" viewBox="0 0 16 16" fill="none" xmlns="http://www.w3.org/2000/svg">
<path fill-rule="evenodd" clip-rule="evenodd" d="M4.90118 3L12.5973 3L12.5995 3.00001C12.9703 3.00166 13.3254 3.14969 13.5876 3.41187C13.8498 3.67405 13.9978 4.02917 13.9994 4.39995L13.9995 4.40219V11.5978L13.9994 11.6C13.9978 11.9708 13.8498 12.3259 13.5876 12.5881C13.3254 12.8503 12.9703 12.9983 12.5995 13L12.5973 13H4.90144C4.70172 12.9999 4.50434 12.9571 4.32254 12.8744C4.14074 12.7917 3.97874 12.6711 3.84742 12.5206C3.82779 12.4981 3.81033 12.4741 3.79518 12.4488L1.03046 8.27617C0.919547 8.10878 0.919534 7.89128 1.03042 7.72388L3.80761 3.53138C3.81997 3.51273 3.83356 3.49493 3.8483 3.4781C3.97967 3.32808 4.14155 3.20782 4.32312 3.12538C4.50469 3.04293 4.70177 3.00018 4.90118 3ZM4.90192 4C4.84488 4.00008 4.78851 4.01232 4.73658 4.0359C4.69277 4.05579 4.65296 4.08337 4.61901 4.11726L2.04704 7.99996L4.62079 11.8843C4.6543 11.9175 4.69347 11.9446 4.73653 11.9641C4.78845 11.9878 4.84481 12 4.90184 12H12.5959C12.7027 11.9993 12.8049 11.9566 12.8805 11.881C12.956 11.8055 12.9988 11.7032 12.9995 11.5964V4.40356C12.9988 4.29676 12.956 4.19452 12.8805 4.11898C12.8049 4.04345 12.7027 4.00071 12.5959 4H4.90192Z" fill="#495057"/>
<path fill-rule="evenodd" clip-rule="evenodd" d="M10.8754 5.65676C11.0706 5.85202 11.0706 6.16861 10.8754 6.36387L6.81254 10.4267C6.61728 10.6219 6.30069 10.6219 6.10543 10.4267C5.91017 10.2314 5.91017 9.91484 6.10543 9.71957L10.1682 5.65676C10.3635 5.4615 10.6801 5.4615 10.8754 5.65676Z" fill="#495057"/>
<path fill-rule="evenodd" clip-rule="evenodd" d="M6.10543 5.65676C6.30069 5.4615 6.61728 5.4615 6.81254 5.65676L10.8754 9.71957C11.0706 9.91484 11.0706 10.2314 10.8754 10.4267C10.6801 10.6219 10.3635 10.6219 10.1682 10.4267L6.10543 6.36387C5.91017 6.16861 5.91017 5.85202 6.10543 5.65676Z" fill="#495057"/>
<path fill-rule="evenodd" clip-rule="evenodd" d="M10.8754 5.65676C11.0706 5.85202 11.0706 6.16861 10.8754 6.36387L6.81254 10.4267C6.61728 10.6219 6.30069 10.6219 6.10543 10.4267C5.91017 10.2314 5.91017 9.91484 6.10543 9.71957L10.1682 5.65676C10.3635 5.4615 10.6801 5.4615 10.8754 5.65676Z" fill="#495057"/>
<path fill-rule="evenodd" clip-rule="evenodd" d="M6.10543 5.65676C6.30069 5.4615 6.61728 5.4615 6.81254 5.65676L10.8754 9.71957C11.0706 9.91484 11.0706 10.2314 10.8754 10.4267C10.6801 10.6219 10.3635 10.6219 10.1682 10.4267L6.10543 6.36387C5.91017 6.16861 5.91017 5.85202 6.10543 5.65676Z" fill="#495057"/>
</svg>
