<svg width="40" height="40" viewBox="0 0 40 40" fill="none" xmlns="http://www.w3.org/2000/svg">
<path fill-rule="evenodd" clip-rule="evenodd" d="M3.75 20C3.75 11.0284 11.0284 3.75 20 3.75C28.9716 3.75 36.25 11.0284 36.25 20C36.25 28.9716 28.9716 36.25 20 36.25C11.0284 36.25 3.75 28.9716 3.75 20ZM20 6.25C12.4091 6.25 6.25 12.4091 6.25 20C6.25 27.5909 12.4091 33.75 20 33.75C27.5909 33.75 33.75 27.5909 33.75 20C33.75 12.4091 27.5909 6.25 20 6.25Z" fill="#ADB5BD"/>
<path fill-rule="evenodd" clip-rule="evenodd" d="M15.9911 11.6161C16.4793 11.128 17.2707 11.128 17.7589 11.6161L25.2589 19.1161C25.747 19.6043 25.747 20.3957 25.2589 20.8839L17.7589 28.3839C17.2707 28.872 16.4793 28.872 15.9911 28.3839C15.503 27.8957 15.503 27.1043 15.9911 26.6161L22.6072 20L15.9911 13.3839C15.503 12.8957 15.503 12.1043 15.9911 11.6161Z" fill="#ADB5BD"/>
</svg>
