<svg width="40" height="40" viewBox="0 0 40 40" fill="none" xmlns="http://www.w3.org/2000/svg">
<path fill-rule="evenodd" clip-rule="evenodd" d="M3.75 20C3.75 11.0284 11.0284 3.75 20 3.75C28.9716 3.75 36.25 11.0284 36.25 20C36.25 28.9716 28.9716 36.25 20 36.25C11.0284 36.25 3.75 28.9716 3.75 20ZM20 6.25C12.4091 6.25 6.25 12.4091 6.25 20C6.25 27.5909 12.4091 33.75 20 33.75C27.5909 33.75 33.75 27.5909 33.75 20C33.75 12.4091 27.5909 6.25 20 6.25Z" fill="#ADB5BD"/>
<path fill-rule="evenodd" clip-rule="evenodd" d="M24.0089 11.6161C24.497 12.1043 24.497 12.8957 24.0089 13.3839L17.3928 20L24.0089 26.6161C24.497 27.1043 24.497 27.8957 24.0089 28.3839C23.5207 28.872 22.7293 28.872 22.2411 28.3839L14.7411 20.8839C14.253 20.3957 14.253 19.6043 14.7411 19.1161L22.2411 11.6161C22.7293 11.128 23.5207 11.128 24.0089 11.6161Z" fill="#ADB5BD"/>
</svg>
