<svg width="16" height="16" viewBox="0 0 16 16" fill="none" xmlns="http://www.w3.org/2000/svg">
<path fill-rule="evenodd" clip-rule="evenodd" d="M0.5 4.5C0.5 4.22386 0.723858 4 1 4H15C15.2761 4 15.5 4.22386 15.5 4.5C15.5 4.77614 15.2761 5 15 5H1C0.723858 5 0.5 4.77614 0.5 4.5Z" fill="#0A51A1"/>
<path fill-rule="evenodd" clip-rule="evenodd" d="M3 8C3 7.72386 3.22386 7.5 3.5 7.5H12.5C12.7761 7.5 13 7.72386 13 8C13 8.27614 12.7761 8.5 12.5 8.5H3.5C3.22386 8.5 3 8.27614 3 8Z" fill="#0A51A1"/>
<path fill-rule="evenodd" clip-rule="evenodd" d="M6 11.5C6 11.2239 6.22386 11 6.5 11H9.5C9.77614 11 10 11.2239 10 11.5C10 11.7761 9.77614 12 9.5 12H6.5C6.22386 12 6 11.7761 6 11.5Z" fill="#0A51A1"/>
</svg>
